<svg height="512pt" viewBox="0 -78 512.00003 512" width="512pt" xmlns="http://www.w3.org/2000/svg" xmlns:xlink="http://www.w3.org/1999/xlink"><linearGradient id="a" gradientUnits="userSpaceOnUse" x1="248.5919687776" x2="289.5291973482" y1="165.6281350286" y2="369.2907794026"><stop offset="0" stop-color="#ffb92d"/><stop offset="1" stop-color="#f59500"/></linearGradient><linearGradient id="b"><stop offset="0" stop-color="#f8ebe1"/><stop offset="1" stop-color="#fbd1a2"/></linearGradient><linearGradient id="c" gradientUnits="userSpaceOnUse" x1="258.3593267" x2="258.3593267" xlink:href="#b" y1="188.0069618994" y2="223.5843513042"/><linearGradient id="d" gradientUnits="userSpaceOnUse" x1="258.3593267" x2="258.3593267" y1="236.8101201244" y2="263.4239919522"><stop offset="0" stop-color="#fff465"/><stop offset="1" stop-color="#ffe600"/></linearGradient><linearGradient id="e"><stop offset="0" stop-color="#be3f45" stop-opacity="0"/><stop offset="1" stop-color="#be3f45"/></linearGradient><linearGradient id="f" gradientUnits="userSpaceOnUse" x1="263.9990593194" x2="250.099558445" xlink:href="#e" y1="190.8460533154" y2="46.2915253198"/><linearGradient id="g" gradientUnits="userSpaceOnUse" x1="448.1821031664" x2="363.571356222" xlink:href="#e" y1="196.8712919828" y2="92.3988517982"/><linearGradient id="h" gradientUnits="userSpaceOnUse" x1="456.7852127454" x2="414.835127269" xlink:href="#e" y1="194.16833239" y2="133.5418843788"/><linearGradient id="i"><stop offset="0" stop-color="#8c6239"/><stop offset="1" stop-color="#42210b"/></linearGradient><linearGradient id="j" gradientUnits="userSpaceOnUse" x1="248.1646995744" x2="257.356910583" xlink:href="#i" y1="109.1208793756" y2="197.1030975726"/><linearGradient id="k" gradientUnits="userSpaceOnUse" x1="416.3035639784" x2="383.1992360284" xlink:href="#i" y1="69.298004225" y2="118.507248899"/><linearGradient id="l" gradientUnits="userSpaceOnUse" x1="354.180167873" x2="244.4097301178" y1="143.0674978836" y2="33.2970601284"><stop offset="0" stop-color="#42210b" stop-opacity="0"/><stop offset="1" stop-color="#42210b"/></linearGradient><linearGradient id="m" gradientUnits="userSpaceOnUse" x1="278.1903966954" x2="308.9661275664" y1="65.7427189084" y2="96.5185501716"><stop offset="0" stop-color="#ff4c54"/><stop offset=".2336" stop-color="#fa4b53"/><stop offset=".496" stop-color="#ed4850"/><stop offset=".7713" stop-color="#d6444b"/><stop offset="1" stop-color="#be3f45"/></linearGradient><radialGradient id="n" cx="322.5742902764" cy="46.3805772554" gradientUnits="userSpaceOnUse" r="47.3067120918"><stop offset="0" stop-color="#be3f45"/><stop offset=".3634" stop-color="#c03f46"/><stop offset=".5718" stop-color="#c94147"/><stop offset=".7411" stop-color="#d7444b"/><stop offset=".8884" stop-color="#ea484f"/><stop offset="1" stop-color="#ff4c54"/></radialGradient><linearGradient id="o" gradientUnits="userSpaceOnUse" x1="279.9155362602" x2="279.9155362602" xlink:href="#e" y1="46.0364327938" y2="60.7750116758"/><linearGradient id="p" gradientUnits="userSpaceOnUse" x1="79.529696918" x2="-38.5085404682" xlink:href="#e" y1="216.6228549796" y2="216.6228549796"/><linearGradient id="q" gradientUnits="userSpaceOnUse" x1="256.00011" x2="256.00011" xlink:href="#b" y1="352.209749318" y2="321.1006159508"/><linearGradient id="r" gradientUnits="userSpaceOnUse" x1="224.3155285424" x2="513.9893910508" xlink:href="#b" y1="305.3992758708" y2="305.3992758708"/><path d="m465.710938 151.476562h-409.566407c-2.835937 0-5.136719-2.300781-5.136719-5.136718v129.503906c0 6.109375 4.953126 11.0625 11.0625 11.0625h392.578126c6.109374 0 11.0625-4.953125 11.0625-11.0625zm0 0" fill="url(#a)"/><path d="m465.710938 184.804688v18.902343c0 7.214844-5.792969 13.191407-13.011719 13.203125-.042969 0-.089844 0-.132813 0-10.5 0-20.992187-2.207031-30.769531-6.625-11.683594-5.289062-25.066406-5.289062-36.734375-.011718h-.019531c-19.554688 8.847656-41.984375 8.847656-61.539063 0l-.070312-.027344c-11.65625-5.25-25.007813-5.242188-36.664063.027344l-.332031.152343c-19.476562 8.695313-41.761719 8.644531-61.21875-.152343l-.058594-.019532c-11.65625-5.25-25.019531-5.25-36.675781.019532-19.542969 8.847656-41.980469 8.847656-61.539063 0l-.148437-.070313c-11.636719-5.207031-24.960937-5.179687-36.574219.070313l-.199218.09375c-7.914063 3.550781-16.300782 5.65625-24.769532 6.3125-7.679687.601562-14.246094-5.46875-14.246094-13.171876v-17.527343c8.957032 1.726562 18.324219.683593 26.796876-3.140625l.199218-.09375c19.507813-8.753906 41.855469-8.734375 61.351563.082031l.128906.058594c11.636719 5.222656 24.96875 5.203125 36.59375-.046875 19.554687-8.847656 41.992187-8.847656 61.550781-.011719l.019532.019531c11.664062 5.261719 25.046874 5.261719 36.703124-.007812l.332032-.152344c19.476562-8.695312 41.773437-8.644531 61.21875.140625l.058594.03125c11.648437 5.25 24.988281 5.25 36.632812 0l.050781-.03125c19.558594-8.835937 41.984375-8.835937 61.542969 0 9.976562 4.507813 21.203125 5.171875 31.523438 1.976563zm0 0" fill="url(#c)"/><path d="m465.710938 234.75v18.890625c0 7.21875-5.792969 13.191406-13.011719 13.207031-.042969 0-.089844 0-.132813 0-10.5 0-20.992187-2.210937-30.769531-6.628906-11.683594-5.277344-25.066406-5.277344-36.734375-.007812l-.019531.007812c-19.554688 8.835938-41.984375 8.835938-61.539063 0l-.070312-.027344c-11.65625-5.25-25.007813-5.25-36.664063.019532l-.332031.148437c-19.476562 8.695313-41.761719 8.65625-61.21875-.140625l-.058594-.027344c-11.65625-5.25-25.019531-5.242187-36.675781.019532-19.542969 8.84375-41.980469 8.84375-61.539063.007812l-.148437-.070312c-11.636719-5.207032-24.960937-5.1875-36.574219.0625l-.199218.089843c-7.917969 3.550781-16.300782 5.65625-24.769532 6.316407-7.679687.597656-14.246094-5.46875-14.246094-13.171876v-17.519531c8.957032 1.726563 18.324219.683594 26.796876-3.152343l.199218-.089844c19.507813-8.753906 41.855469-8.726563 61.351563.089844l.128906.058593c11.636719 5.210938 24.96875 5.203125 36.59375-.058593 19.554687-8.84375 41.992187-8.84375 61.550781 0l.019532.007812c11.664062 5.273438 25.046874 5.261719 36.703124-.007812l.332032-.152344c19.476562-8.691406 41.773437-8.640625 61.21875.152344l.058594.03125c11.648437 5.238281 24.988281 5.238281 36.632812-.011719l.050781-.019531c19.558594-8.84375 41.984375-8.84375 61.542969-.011719 9.976562 4.519531 21.203125 5.179687 31.523438 1.988281zm0 0" fill="url(#d)"/><path d="m465.710938 151.476562h-409.566407c-.507812 0-.988281-.09375-1.449219-.230468l135.660157 135.660156h264.292969c6.109374 0 11.0625-4.953125 11.0625-11.0625zm0 0" fill="url(#f)"/><path d="m368.449219 162.078125c.429687 3.652344 2.289062 6.863281 4.988281 9.085937l92.273438 92.273438v-111.960938h-97.261719zm0 0" fill="url(#g)"/><path d="m465.710938 151.476562h-56.792969v6.746094c.25.683594.378906 1.425782.378906 2.199219v16.382813c0 4.179687 1.859375 7.921874 4.78125 10.476562l51.632813 51.628906zm0 0" fill="url(#h)"/><path d="m453.628906 151.476562c-43.738281-83.832031-115.214844-104.0625-115.214844-104.0625l-283.65625 93.441407c-5.882812 1.9375-4.488281 10.621093 1.703126 10.621093h303.914062c4.492188.511719 7.976562 4.320313 7.976562 8.945313 0 7.6875 6.234376 13.917969 13.921876 13.917969s13.921874-6.230469 13.921874-13.917969c0-3.621094 2.933594-6.550781 6.550782-6.550781 3.617187 0 6.550781 2.933594 6.550781 6.550781v16.375c0 7.691406 6.234375 13.921875 13.921875 13.921875 7.691406 0 13.921875-6.230469 13.921875-13.921875v-25.320313zm0 0" fill="url(#j)"/><path d="m453.640625 166.539062c-5.433594 0-10.675781-2.949218-13.363281-8.09375-40.269532-77.1875-105.308594-96.355468-105.960938-96.539062-8.003906-2.265625-12.65625-10.589844-10.390625-18.589844 2.265625-8.003906 10.589844-12.65625 18.589844-10.390625 3.175781.898438 78.253906 23.015625 124.464844 111.585938 3.84375 7.375.988281 16.46875-6.386719 20.316406-2.222656 1.160156-4.605469 1.710937-6.953125 1.710937zm0 0" fill="url(#k)"/><path d="m414.566406 157.621094c-.222656-2.097656-.738281-4.085938-1.472656-5.945313l-96.929688-96.929687-72.054687 23.734375c2.109375 5.585937 5.484375 10.566406 9.785156 14.574219l58.421875 58.421874h48.058594c4.488281.515626 7.976562 4.320313 7.976562 8.945313 0 7.6875 6.230469 13.921875 13.921876 13.921875 7.6875 0 13.921874-6.230469 13.921874-13.921875 0-3.617187 2.933594-6.550781 6.550782-6.550781 3.617187 0 6.550781 2.933594 6.550781 6.550781v16.378906c0 1.304688.191406 2.5625.527344 3.761719 3.15625-5.5625 4.960937-11.988281 4.960937-18.839844 0-1.382812-.074218-2.753906-.21875-4.101562zm0 0" fill="url(#l)"/><path d="m317.945312 61c-1.480468-13.882812-15.097656-23.269531-28.636718-19.847656-3.003906.761718-6.152344 1.164062-9.394532 1.164062-3.242187 0-6.386718-.402344-9.390624-1.164062-13.554688-3.425782-27.175782 5.988281-28.644532 19.890625-.1875 1.796875-.253906 3.628906-.183594 5.488281.722657 19.84375 16.859376 36.019531 36.699219 36.789062 21.816407.847657 39.769531-16.589843 39.769531-38.21875 0-1.386718-.074218-2.753906-.21875-4.101562zm0 0" fill="url(#m)"/><path d="m280.3125 55.734375c-3.136719 0-5.804688-2.398437-6.070312-5.582031-1.125-13.3125 3.554687-40.855469 29.300781-49.8125 3.1875-1.105469 6.664062.574218 7.769531 3.761718 1.109375 3.179688-.574219 6.660157-3.757812 7.765626-9.5625 3.328124-16.015626 10.402343-19.183594 21.027343-2.539063 8.503907-1.972656 16.175781-1.964844 16.25.261719 3.355469-2.234375 6.296875-5.589844 6.570313-.167968.011718-.335937.019531-.503906.019531zm0 0" fill="url(#n)"/><path d="m295.3125 49.050781c0-4.28125-6.894531-7.75-15.398438-7.75-8.5 0-15.394531 3.46875-15.394531 7.75s6.894531 7.75 15.394531 7.75c8.503907 0 15.398438-3.46875 15.398438-7.75zm0 0" fill="url(#o)"/><path d="m104.652344 151.476562h-48.507813c-2.835937 0-5.136719-2.300781-5.136719-5.136718v129.503906c0 6.109375 4.953126 11.0625 11.0625 11.0625h42.582032zm0 0" fill="url(#p)"/><path d="m373.867188 357.226562h-235.734376c-21.859374 0-43.117187-7.140624-60.546874-20.332031l-32.78125-24.8125h422.390624l-32.78125 24.8125c-17.429687 13.191407-38.6875 20.332031-60.546874 20.332031zm0 0" fill="url(#q)"/><path d="m488.128906 329.269531h-464.257812c-13.183594 0-23.871094-10.6875-23.871094-23.871093 0-13.183594 10.6875-23.871094 23.871094-23.871094h464.257812c13.183594 0 23.871094 10.6875 23.871094 23.871094 0 13.183593-10.6875 23.871093-23.871094 23.871093zm0 0" fill="url(#r)"/></svg>