<?xml version="1.0" encoding="UTF-8" standalone="no"?>
<svg id="svg15024" xmlns:rdf="http://www.w3.org/1999/02/22-rdf-syntax-ns#" xmlns="http://www.w3.org/2000/svg" height="289.01mm" width="307.37mm" version="1.1" xmlns:cc="http://creativecommons.org/ns#" xmlns:dc="http://purl.org/dc/elements/1.1/" viewBox="0 0 1089.1139 1024.0658">
<g id="layer1" transform="translate(-1127.8 -4.3578)">
<g id="g18464" transform="matrix(.96538 .26086 -.26086 .96538 205.68 -416.46)">
<path id="rect18461" d="m1638.2 0.86914c-3.6623 0-6.9811 1.6879-9.6133 4.1484 2.6934 0.14777 5.3752 0.35609 8.0449 0.61914-2.6635-0.26182-5.3406-0.46771-8.0273-0.61523-27.41-1.4878-55.878 2.9752-83.059 16.365-60.799 29.985-108.78 83.516-111.67 148.66-1.1444 25.664-3.461 54.504 2.4043 82.143 0.0007 0.003 0 0.007 0 0.01l-304.36 392.45c-2.9819 5.5774 1.5498 12.307 4.3125 19.904-0.2772-0.8082-0.2208-0.64688 0.5664 1.6191l75.877 219.45c27.108-0.00099 27.094 0.0176 0 0.0176l81.971 237.07c2.06 5.8653 7.5821 9.6153 13.533 9.6153 1.1731 0 2.3744-0.1443 3.5761-0.459l890.07-230.12c6.6666-1.7167 11.187-7.9543 10.672-14.85l-0.086-1.2598c-891.54-34.643-650.63-0.0273 0.025-0.0273l-39.1-552.34c-101.8-269.92-356.9-326.29-535.2-332.43z" fill="#ffd5d5"/>
<g>
<path id="path13554" d="m2167.6 657.04c-27.066 20.228-32.961 62.83-64.262 70.068-36.05 8.2972-65.176-44.375-109.52-33.273-44.376 11.073-51.3 70.698-95.676 84.574-44.376 13.848-92.872-30.528-127.55-18.025-34.648 12.474-49.898 56.822-108.15 72.072-58.224 15.25-102.57-23.547-134.47-16.623-24.548 5.3217-65.406 47.436-92.443 69.781h254.61l484.56-128.21-7.0957-100.37zm-732.1 228.61c-8.0684 6.6664-15.05 11.786-19.828 13.389-20.8 6.9239-77.651-2.7734-105.38 6.9258-20.514 7.1814-34.962 26.494-47.236 37.881l17.367 50.213 409.68-108.41h-254.61z" fill="#f1a9a0"/>
<path id="path13558" d="m2146 352.07-980.65 309.34 48.639 140.65c28.325-9.785 41.687-36.909 68.066-44.434 30.385-8.6978 56.422 13.018 99.854 0 43.403-13.018 43.402-52.1 86.834-69.467s73.817 43.402 125.92 21.715c52.101-21.716 60.771-69.467 104.2-82.514 43.403-13.018 72.042 35.219 128.49 22.201 56.45-13.047 40.828-61.257 101.63-82.973 60.77-21.716 76.592 33.504 124.37 20.486 43.518-11.874 56.935-70.899 102.97-88.752l-10.3-146.26zm28.615 405.33-484.56 128.23h459.72l33.275-8.6113-8.4395-119.62zm-484.57 128.25-409.68 108.41 36.938 106.8 832.47-215.21h-459.72z" fill="#b08174"/>
<path id="path13578" d="m1721.7 34.795c128.49 16.223 317.44 77.794 413.66 290.66l-952.81 300.56 265.17-341.9c15.936 29.641 47.523 55.563 109.35 71.185 90.326 22.832 146.78-4.3775 179.48-36.794l23.433 11.301c2.0028 0.97278 4.12 1.4306 6.2086 1.4306 5.3217 0 10.414-2.9756 12.875-8.0684 3.4333-7.1242 0.4578-15.679-6.6664-19.112l-16.823-8.1256c6.4947-9.4703 11.187-18.54 14.248-26.036 4.9211-12.074 8.9839-27.41 11.988-44.347 1.5737 0.60084 3.0614 1.4878 4.8067 1.4878 1.6023 0 3.2617-0.28612 4.8639-0.85834l32.788-11.931c7.4389-2.6895 11.273-10.901 8.5547-18.34-2.6894-7.4103-10.929-11.216-18.34-8.5548l-29.098 10.615c2.6323-31.673 0.8584-66.607-8.3258-98.852-6.552-22.889-27.095-46.436-55.363-64.318" fill="#fff"/>
<path id="path13638" d="m1436.2 252.19c-5.8653-27.638-3.5478-56.479-2.4034-82.143 2.8898-65.148 50.871-118.68 111.67-148.66 27.181-13.39 55.649-17.853 83.058-16.366 34.391 1.8883 67.065 13.304 93.13 29.784 28.296 17.882 48.811 41.429 55.363 64.318 9.2128 32.216 10.958 67.179 8.3259 98.823-0.8012 9.6134-2.0314 18.798-3.5764 27.581-2.9756 16.938-7.067 32.302-11.988 44.376-3.0614 7.4961-7.7537 16.537-14.248 26.008-5.1214 7.4675-11.502 15.135-18.998 22.603-32.731 32.388-89.152 59.597-179.51 36.765-61.829-15.622-93.416-41.515-109.35-71.185-5.522-10.271-9.1556-20.972-11.473-31.901" fill="#e26a6a"/>
<path id="path13642" d="m1550.4 137.29c13.218 0 25.693-2.7181 36.594-8.2114 15.135-7.6106 34.934-24.434 43.346-61.314 1.7739-7.725-3.0328-15.393-10.758-17.138-7.6964-1.8311-15.364 3.0614-17.11 10.758-4.7781 20.915-14.306 35.077-28.325 42.144-15.536 7.7822-37.023 6.7809-58.825-2.8325-7.1528-3.1472-15.65 0.11445-18.855 7.3245-3.1759 7.21 0.086 15.65 7.3244 18.855 15.736 6.9239 31.673 10.414 46.608 10.414" fill="#f1a9a0"/>
<path id="path13562" d="m1638.2 0.86914c-3.6623 0-6.9811 1.6879-9.6133 4.1484 34.419 1.8883 67.093 13.334 93.158 29.785 128.49 16.194 317.44 77.765 413.66 290.63l-952.81 300.56 265.17-341.9c-5.522-10.271-9.1552-20.971-11.473-31.9l-304.37 392.46c-3.1911 5.9687 2.2232 13.256 4.8652 21.516-1.1546-3.3579-1.1457-3.3304 0.014 0.008l75.877 219.45h30.299l-28.896-83.543-48.639-140.65v-0.0117l980.64-309.34-1.1738-16.766c-0.1431-1.967 0.1223-3.8722 0.7226-5.6309-0.5994 1.7576-0.8617 3.6614-0.7187 5.627l1.1719 16.766 10.328 146.23 11.217 158.73 7.0664 100.37 8.4414 119.62-33.275 8.584h62.572l-38.996-552.31c-101.8-269.92-356.9-326.29-535.2-332.43zm204.2 100.92c-6.6687-0.13496-12.658 4.5027-14.135 11.287-1.688 7.6964 3.1754 15.335 10.9 17.023l31.473 6.8965c1.0299 0.22889 2.0598 0.34375 3.0898 0.34375 6.552 0 12.474-4.5491 13.934-11.244 1.6881-7.725-3.1773-15.335-10.902-17.023l-31.471-6.9258c-0.9692-0.22174-1.936-0.33814-2.8886-0.35742zm79.06 40.168c-6.1253-0.0416-11.752 3.941-13.658 10.078l-8.6699 27.84c-2.3747 7.5534 1.8314 15.564 9.3848 17.91 1.4306 0.45778 2.8616 0.65821 4.2636 0.65821 6.0942 0 11.758-3.9202 13.646-10.043l8.6992-27.838c2.3461-7.5534-1.8599-15.566-9.3847-17.912-1.427-0.46136-2.8678-0.68376-4.2813-0.69336zm-102.7 44.572c-1.4041 0.0667-2.8215 0.34339-4.2109 0.84766l-29.127 10.586c-0.8011 9.6134-2.0312 18.77-3.5762 27.582 1.6022 0.60084 3.09 1.4863 4.8067 1.4863 1.6308 0 3.2903-0.25658 4.8925-0.85742l32.787-11.932c7.4103-2.6895 11.245-10.901 8.5273-18.34-2.1852-6.0209-8.0153-9.6619-14.1-9.373zm48.428 11.883c-2.3066 0.001-4.6504 0.56475-6.832 1.7539-6.9525 3.8053-9.4994 12.475-5.7227 19.428l6.5235 11.93c2.575 4.7495 7.4964 7.4688 12.56 7.4688 2.3175 0 4.6635-0.57304 6.8379-1.7461 6.9525-3.8053 9.4993-12.475 5.7227-19.428l-6.5235-11.93c-2.5964-4.7602-7.4918-7.4791-12.566-7.4766zm81.41 30.416c-7.8967 0-14.307 6.41-14.307 14.307v31.471c0 7.8967 6.41 14.307 14.307 14.307 7.8967 0 14.305-6.41 14.305-14.307v-31.471c0-7.8967-6.408-14.307-14.305-14.307zm-98.024 58.637c-6.0694-0.28768-11.946 3.3151-14.178 9.3359-2.718 7.4103 1.0591 15.621 8.4981 18.367l20.6 7.582c1.6309 0.60084 3.3183 0.88867 4.9492 0.88867 5.8366 0 11.301-3.578 13.418-9.3574 2.7467-7.4103-1.0585-15.621-8.4688-18.367l-20.629-7.6113c-1.3787-0.49891-2.7888-0.7715-4.1895-0.83789zm-94.959 8.4707c-5.0928 7.4389-11.502 15.135-18.998 22.574l23.404 11.301c2.0028 0.97278 4.1184 1.4316 6.207 1.4316 5.3217 0 10.415-2.9762 12.904-8.0976 3.4333-7.0956 0.4582-15.651-6.666-19.084zm393.7 27.99c-0.3318 0.3161-0.6492 0.64812-0.9492 0.99414 0.3004-0.34633 0.617-0.6778 0.9492-0.99414zm-2.541 3.2305c-0.2295 0.39804-0.4419 0.80836-0.6328 1.2285 0.1914-0.42096 0.4027-0.82976 0.6328-1.2285zm-517.3 54.717c-7.8967 0-14.307 6.408-14.307 14.305v31.473c0 7.8967 6.4099 14.307 14.307 14.307 7.8967 0 14.305-6.4099 14.305-14.307v-31.473c0-7.8967-6.408-14.305-14.305-14.305zm-98.193 0.01c-3.6623-0.14306-7.3811 1.1087-10.285 3.7695-5.8081 5.3789-6.1511 14.42-0.8008 20.229l13.018 14.105c2.8039 3.0614 6.6661 4.6055 10.5 4.6055 3.4905 0 6.9811-1.2576 9.6992-3.7754 5.8081-5.3789 6.1804-14.42 0.8301-20.229l-13.018-14.105c-2.6751-2.9184-6.2811-4.4566-9.9433-4.5996zm-104.95 0.0176c-6.622 0.13886-12.569 4.7976-13.871 11.582l-5.4356 28.211c-1.4878 7.7536 3.6057 15.278 11.359 16.766 0.9155 0.17167 1.8299 0.25781 2.7168 0.25781 6.7237 0 12.704-4.7772 14.049-11.615l5.4082-28.24c1.4878-7.7536-3.6058-15.251-11.359-16.738-0.962-0.17166-1.9211-0.24249-2.8672-0.22265zm73.354 39.049c-2.305 0.0986-4.6193 0.75854-6.7383 2.0371l-21.688 13.02c-6.7809 4.0628-8.9827 12.846-4.9199 19.627 2.6894 4.4634 7.4388 6.9531 12.303 6.9531 2.4892 0 5.0353-0.65859 7.3242-2.0605l21.717-13.018c6.7522-4.0628 8.9534-12.848 4.8906-19.629-2.7931-4.6422-7.8176-7.1466-12.889-6.9297zm-287 464.69 81.971 237.07c2.06 5.8653 7.5821 9.6153 13.533 9.6153 1.1731 0 2.3744-0.1443 3.5761-0.459l890.07-230.12c6.6665-1.7167 11.187-7.9543 10.672-14.85l-0.086-1.2598h-62.545l-832.47 215.21-36.938-106.78-17.367-50.213-20.113-58.225z" fill="#6e4c3d"/>
</g>
</g>
</g>
</svg>
