<svg id="Capa_1" enable-background="new 0 0 512 512" height="512" viewBox="0 0 512 512" width="512" xmlns="http://www.w3.org/2000/svg"><g><path d="m10 453c35 0 105 59 105 59h277s48-67 95-67z" fill="#e4dad1"/><g><path d="m251 15 86-12-11 36 23 36-95-6z" fill="#e18557"/><path d="m254 188-10-185 10-3 10 188z" fill="#f9eca7"/></g><g><path d="m422 286-7-40-319 3-10 29z" fill="#f9eca7"/><path d="m96 249 12-17 296-2 11 16-102 16z" fill="#ecb46b"/></g><g><path d="m59 370 4-34 377-8 3 24z" fill="#f9eca7"/><path d="m410 330 30-2-4-14-365 5-8 17 209 4 91-7c18.808 1.252 27.342 5 33 5 6.422 0 9.046-6.887 14-8z" fill="#ecb46b"/></g><g><path d="m44 459 424-14-9-41-415 18z" fill="#f9eca7"/><path d="m44 422 9-18 392-13 14 13-212 20z" fill="#ecb46b"/></g><path d="m0 459 512-9v-18l-512 13z" fill="#fbf5ef"/><g><path d="m39 406 424-14-3-34-413 9-7 21z" fill="#f9eca7"/><path d="m453 342-406 25 53 5c10.51 3.043 19.868 12 29 12 10.051 0 17.751-5.136 35-6l51 5 106-7 139-18z" fill="#ecb46b"/></g><g><path d="m452 320-400 1 9-33 384 11z" fill="#f9eca7"/><path d="m445 299-13-18-353-16-18 23 14 2c1.66 2.668 9.243 13 18 13 9.559 0 13.191-7.355 31-8l117 13z" fill="#ecb46b"/></g><g><path d="m429 232-346 6 7-34h330z" fill="#f9eca7"/><path d="m393 207 27-3-9-22-116 6-189-6-16 22 202 14 40-4c11.291 1.539 25.413 5 39 5 11.478 0 14.93-7.262 22-12z" fill="#ecb46b"/></g><path d="m161.485 183.761s39.515 12.239 65.515 12.239c24 0 40 22 40 37s12 20 17 20c12.964 0 35-16 35-44 0-24 50.622-24.86 50.622-24.86s-16.622-13.14-49.622-13.14c-26 0-25 8-41 8s-41-21-62-21-55.515 25.761-55.515 25.761z" fill="#e18557"/></g></svg>